<?xml version="1.0" encoding="utf-8"?>
<!-- Generator: Adobe Illustrator 23.0.3, SVG Export Plug-In . SVG Version: 6.00 Build 0)  -->
<svg version="1.1" id="Calque_1" xmlns="http://www.w3.org/2000/svg" xmlns:xlink="http://www.w3.org/1999/xlink" x="0px" y="0px"
	 viewBox="0 0 1000 1000" style="enable-background:new 0 0 1000 1000;" xml:space="preserve">
<style type="text/css">
	.st0{fill:#4CAF50;}
</style>
<path class="st0" d="M955.8,1000h-912c-24.4,0-44.2-19.8-44.2-44.2v-912c0-24.4,19.8-44.2,44.2-44.2h912c24.4,0,44.2,19.8,44.2,44.2
	v912C1000,980.2,980.2,1000,955.8,1000z"/>
<path d="M321.5,410.5c16.3,0,30.8,7.5,40.1,19.2c-4.4-24.7-20.7-43-40.1-43c-19.4,0-35.7,18.3-40.1,43
	C290.7,418,305.2,410.5,321.5,410.5z"/>
<path d="M674.5,410.5c15.7,0,29.8,7,39.1,18c-4.7-24.1-20.8-41.8-39.9-41.8c-19.7,0-36.2,19-40.3,44.3
	C642.8,418.5,657.7,410.5,674.5,410.5z"/>
<path d="M704.3,584.9c-46,63.6-120.8,105-205.2,105c-84.5,0-159.3-41.4-205.2-105L704.3,584.9z"/>
<g>
</g>
<g>
</g>
<g>
</g>
<g>
</g>
<g>
</g>
<g>
</g>
<g>
</g>
<g>
</g>
<g>
</g>
<g>
</g>
<g>
</g>
<g>
</g>
<g>
</g>
<g>
</g>
<g>
</g>
</svg>
